<svg width="51" height="49" viewBox="0 0 51 49" fill="none" xmlns="http://www.w3.org/2000/svg">
<path d="M20.9743 35.9832V44.6611C20.9743 44.6611 20.9743 49 25.3133 49C29.6522 49 29.6522 44.6611 29.6522 44.6611V35.9832H20.9743Z" fill="#DD2E44"/>
<path d="M20.9743 44.6611L20.9758 44.7146C22.4814 44.6639 23.8916 44.3183 24.7825 42.8546C25.0298 42.4482 25.5968 42.4482 25.8455 42.8546C26.7365 44.3168 28.1466 44.6639 29.6522 44.7146V35.9832H20.9743V44.6611Z" fill="#BE1931"/>
<path d="M45.4952 28.2006C45.4952 37.2776 38.2636 37.2776 38.2636 37.2776H12.2299C12.2299 37.2776 4.99835 37.2776 4.99835 28.2006C4.99835 18.4755 12.2299 1.27162 25.2468 1.27162C38.2636 1.27162 45.4952 19.9219 45.4952 28.2006Z" fill="#D99E82"/>
<path d="M25.3133 25.859C15.1891 25.859 10.8501 30.9601 10.8501 35.1081C10.8501 39.5006 14.411 43.0629 18.8049 43.0629C21.1262 43.0629 23.2046 42.1025 24.661 39.0609C24.9286 38.5026 25.6966 38.5026 25.9641 39.0609C27.4206 42.1025 29.5004 43.0629 31.8203 43.0629C36.2142 43.0629 39.775 39.5006 39.775 35.1081C39.7764 30.9601 35.4375 25.859 25.3133 25.859Z" fill="#F4C7B5"/>
<path d="M20.9743 30.0461C19.528 31.4924 23.867 35.8313 25.3133 35.8313C26.7596 35.8313 31.0985 31.4924 29.6522 30.0461C28.2059 28.5997 22.4207 28.5997 20.9743 30.0461ZM18.0817 24.4127C16.4908 24.4127 15.1891 23.111 15.1891 21.52V18.6274C15.1891 17.0365 16.4908 15.7348 18.0817 15.7348C19.6727 15.7348 20.9743 17.0365 20.9743 18.6274V21.52C20.9743 23.111 19.6727 24.4127 18.0817 24.4127ZM32.5449 24.4127C30.9539 24.4127 29.6522 23.111 29.6522 21.52V18.6274C29.6522 17.0365 30.9539 15.7348 32.5449 15.7348C34.1358 15.7348 35.4375 17.0365 35.4375 18.6274V21.52C35.4375 23.111 34.1358 24.4127 32.5449 24.4127Z" fill="#292F33"/>
<path d="M20.9743 2.15097C19.4427 0.113112 16.174 -1.79313 3.3698 3.00719C-2.62373 5.25476 0.303614 22.6829 4.97087 23.8124C6.5705 23.8124 11.3723 23.8124 11.3723 11.0096C11.3723 10.6915 11.3694 10.3979 11.365 10.1057C14.249 6.04156 17.3586 3.95742 20.9743 2.15097ZM47.2568 3.00719C34.4526 -1.79313 31.1839 0.113112 29.6522 2.15097C33.268 3.95886 36.3776 6.043 39.2615 10.1071C39.2572 10.3979 39.2543 10.6915 39.2543 11.0111C39.2543 23.8139 44.0546 23.8139 45.6557 23.8139C50.323 22.6829 53.2503 5.25476 47.2568 3.00719Z" fill="#662113"/>
<path d="M33.268 34.5369C33.6674 34.5369 33.9912 34.2131 33.9912 33.8137C33.9912 33.4143 33.6674 33.0905 33.268 33.0905C32.8686 33.0905 32.5449 33.4143 32.5449 33.8137C32.5449 34.2131 32.8686 34.5369 33.268 34.5369Z" fill="#D99E82"/>
<path d="M15.9122 34.5369C16.3116 34.5369 16.6354 34.2131 16.6354 33.8137C16.6354 33.4143 16.3116 33.0905 15.9122 33.0905C15.5129 33.0905 15.1891 33.4143 15.1891 33.8137C15.1891 34.2131 15.5129 34.5369 15.9122 34.5369Z" fill="#D99E82"/>
<path d="M36.1606 37.4295C36.56 37.4295 36.8838 37.1057 36.8838 36.7063C36.8838 36.3069 36.56 35.9832 36.1606 35.9832C35.7613 35.9832 35.4375 36.3069 35.4375 36.7063C35.4375 37.1057 35.7613 37.4295 36.1606 37.4295Z" fill="#D99E82"/>
<path d="M14.4659 37.4295C14.8653 37.4295 15.1891 37.1057 15.1891 36.7063C15.1891 36.3069 14.8653 35.9832 14.4659 35.9832C14.0665 35.9832 13.7428 36.3069 13.7428 36.7063C13.7428 37.1057 14.0665 37.4295 14.4659 37.4295Z" fill="#D99E82"/>
<path d="M32.5449 38.8758C33.3436 38.8758 33.9912 38.2283 33.9912 37.4295C33.9912 36.6307 33.3436 35.9832 32.5449 35.9832C31.7461 35.9832 31.0985 36.6307 31.0985 37.4295C31.0985 38.2283 31.7461 38.8758 32.5449 38.8758Z" fill="#D99E82"/>
<path d="M18.0817 38.8758C18.8805 38.8758 19.528 38.2283 19.528 37.4295C19.528 36.6307 18.8805 35.9832 18.0817 35.9832C17.2829 35.9832 16.6354 36.6307 16.6354 37.4295C16.6354 38.2283 17.2829 38.8758 18.0817 38.8758Z" fill="#D99E82"/>
<path d="M13.5736 7.3924C13.199 6.41903 12.6566 5.3719 11.8727 4.588C11.3072 4.02249 10.3931 4.02249 9.8276 4.588C9.26209 5.15351 9.26209 6.06758 9.8276 6.63308C10.652 7.45748 11.3694 9.43026 11.3723 10.0261C11.582 9.44183 12.5857 8.36288 13.5736 7.3924ZM37.0284 7.3924C37.403 6.42048 37.9454 5.3719 38.7293 4.588C39.2948 4.02249 40.2089 4.02249 40.7744 4.588C41.3399 5.15351 41.3399 6.06758 40.7744 6.63308C39.95 7.45748 39.2326 9.43026 39.2297 10.0261C39.02 9.44183 38.0163 8.36288 37.0284 7.3924Z" fill="#380F09"/>
</svg>
